<svg width="18" height="18" viewBox="0 0 18 18" fill="none" xmlns="http://www.w3.org/2000/svg">
<g clip-path="url(#clip0_925_11178)">
<path d="M9 1.5C13.125 1.5 16.5 4.875 16.5 9C16.5 11.1 15.675 12.975 14.325 14.325L9 9V1.5Z" fill="#D1DFFA" stroke="#808080" stroke-width="2" stroke-miterlimit="10" stroke-linecap="round" stroke-linejoin="round"/>
<path d="M3 13.5C4.35 15.3 6.525 16.5 9 16.5C11.1 16.5 12.975 15.675 14.325 14.325L9 9L3 13.5Z" fill="#FAD1D1" stroke="#808080" stroke-width="2" stroke-miterlimit="10" stroke-linecap="round" stroke-linejoin="round"/>
<path d="M3 13.5C2.025 12.225 1.5 10.725 1.5 8.99999C1.5 6.89999 2.325 5.02499 3.675 3.67499L9 8.99999L3 13.5Z" fill="#FAF0D1" stroke="#808080" stroke-width="2" stroke-miterlimit="10" stroke-linecap="round" stroke-linejoin="round"/>
<path d="M8.99999 1.5C6.89999 1.5 5.02499 2.325 3.67499 3.675L8.99999 9V1.5Z" fill="#D6F5D6" stroke="#808080" stroke-width="2" stroke-miterlimit="10" stroke-linecap="round" stroke-linejoin="round"/>
</g>
<defs>
<clipPath id="clip0_925_11178">
<rect width="18" height="18" fill="white"/>
</clipPath>
</defs>
</svg>
