<?xml version="1.0" encoding="utf-8"?>
<!-- Generator: Adobe Illustrator 27.5.0, SVG Export Plug-In . SVG Version: 6.00 Build 0)  -->
<svg version="1.1" id="レイヤー_1" xmlns="http://www.w3.org/2000/svg" xmlns:xlink="http://www.w3.org/1999/xlink" x="0px"
	 y="0px" viewBox="0 0 256 256" style="enable-background:new 0 0 256 256;" xml:space="preserve">
<style type="text/css">
	.st0{fill:url(#SVGID_1_);}
</style>
<linearGradient id="SVGID_1_" gradientUnits="userSpaceOnUse" x1="16.0518" y1="63.3667" x2="240.0315" y2="192.6814">
	<stop  offset="0" style="stop-color:#0096AF"/>
	<stop  offset="1" style="stop-color:#009678"/>
</linearGradient>
<path class="st0" d="M228,132.1c0,1.2,1.7,1.4,2.1,0.3l22.3-61.3c4.2-11.6-5.7-23.3-17.8-21.2L107.2,72.4
	c-12.1,2.1-17.4,16.6-9.4,26l83.1,99.1c7.9,9.4,23.1,6.8,27.3-4.8l17.8-48.9c0.4-1.1,2.1-0.8,2.1,0.3V208c0,11-9,20-20,20H48
	c-11,0-20-9-20-20V48c0-11,9-20,20-20h160c11,0,20,9,20,20V132.1z"/>
<g id="BaseCut_x5F_yoko">
</g>
<g id="BaseCut_x5F_tate">
</g>
</svg>
