<svg width="112" height="64" viewBox="0 0 112 64" fill="none" xmlns="http://www.w3.org/2000/svg">
<g clip-path="url(#clip0_983_24208)">
<path d="M20.1972 32.4C20.1972 32.5 20.3472 32.55 20.3972 32.45L22.5972 26.45C22.9972 25.3 22.0472 24.15 20.8472 24.35L8.34718 26.55C7.14718 26.75 6.64718 28.2 7.39718 29.1L15.5472 38.85C16.3472 39.8 17.7972 39.5 18.2472 38.4L19.9972 33.6C20.0472 33.5 20.1972 33.5 20.1972 33.65V39.9C20.1972 41 19.2972 41.85 18.2472 41.85H2.49718C1.39718 41.85 0.54718 40.95 0.54718 39.9V24.15C0.54718 23.05 1.44718 22.2 2.49718 22.2H18.1972C19.2972 22.2 20.1472 23.1 20.1472 24.15L20.1972 32.4Z" fill="white"/>
<path d="M33.6972 21.4L31.0472 21.85C30.6972 21.9 30.4472 22.2 30.4472 22.55V25.25H28.5472C28.1972 25.25 27.9472 25.5 27.9472 25.85V28.6C27.9472 28.95 28.1972 29.2 28.5472 29.2H30.4472V36.5C30.4472 39.45 32.8472 41.8 35.7472 41.8H37.7972C38.1472 41.8 38.3972 41.55 38.3972 41.2V38.45C38.3972 38.1 38.1472 37.85 37.7972 37.85H35.8972C35.0472 37.85 34.3972 37.2 34.3972 36.35V29.25H37.7972C38.1472 29.25 38.3972 29 38.3972 28.65V25.9C38.3972 25.55 38.1472 25.3 37.7972 25.3H34.3972V22C34.3972 21.6 34.0472 21.3 33.6972 21.4Z" fill="white"/>
<path d="M44.4472 41.8H41.6972C41.3472 41.8 41.0972 41.55 41.0972 41.2V25.85C41.0972 25.5 41.3472 25.25 41.6972 25.25H44.3972C44.7472 25.25 44.9972 25.5 44.9972 25.85V29.25C45.6972 28.15 46.9472 25.6 50.3472 25.3C50.6972 25.25 50.9972 25.55 50.9972 25.9V29.05C50.9972 29.35 50.7472 29.65 50.4472 29.65C47.2472 29.85 45.0972 31.55 45.0972 35.5V41.2C45.0972 41.55 44.7972 41.8 44.4472 41.8Z" fill="white"/>
<path d="M56.9472 41.8H54.1972C53.8472 41.8 53.5972 41.55 53.5972 41.2V25.85C53.5972 25.5 53.8472 25.25 54.1972 25.25H56.9472C57.2972 25.25 57.5472 25.5 57.5472 25.85V41.2C57.5472 41.55 57.2972 41.8 56.9472 41.8Z" fill="white"/>
<path d="M95.7472 33.55C95.7472 38.2 91.9472 42 87.2972 42C82.6472 42 78.8472 38.2 78.8472 33.55C78.8472 28.9 82.6472 25.1 87.2972 25.1C91.9472 25.1 95.7472 28.9 95.7472 33.55ZM92.0972 33.55C92.0972 30.9 89.9472 28.75 87.2972 28.75C84.6472 28.75 82.4972 30.9 82.4972 33.55C82.4972 36.2 84.6472 38.35 87.2972 38.35C89.9472 38.4 92.0972 36.2 92.0972 33.55Z" fill="white"/>
<path d="M107.247 41.8H109.997C110.397 41.8 110.647 41.3 110.447 40.95L105.197 33.5L110.447 26.05C110.697 25.7 110.447 25.2 109.997 25.2H107.247C106.897 25.2 106.597 25.35 106.397 25.65L103.047 30.45L99.6972 25.65C99.4972 25.35 99.1972 25.2 98.8472 25.2H96.0972C95.6972 25.2 95.4472 25.7 95.6472 26.05L100.897 33.5L95.5972 41C95.3472 41.35 95.5972 41.85 96.0472 41.85H98.7972C99.1472 41.85 99.4472 41.7 99.6472 41.4L102.997 36.65L106.347 41.4C106.547 41.65 106.897 41.8 107.247 41.8Z" fill="white"/>
<path d="M77.7972 33.1C78.0472 37.95 74.1972 42 69.3972 42C67.6472 42 66.0472 41.45 64.6972 40.6V41.25C64.6972 41.6 64.4472 41.85 64.0972 41.85H61.5972C61.2472 41.85 60.9972 41.6 60.9972 41.25V18.6C60.9972 18.25 61.2472 17.95 61.5972 17.9L64.2472 17.45C64.5972 17.4 64.9472 17.65 64.9472 18.05V26.45C66.3972 25.55 68.0972 25.1 69.8972 25.2C74.1472 25.4 77.5972 28.85 77.7972 33.1ZM74.1972 33.55C74.1972 30.9 72.0472 28.75 69.3972 28.75C66.7472 28.75 64.5972 30.9 64.5972 33.55C64.5972 36.2 66.7472 38.35 69.3972 38.35C72.0472 38.4 74.1972 36.2 74.1972 33.55Z" fill="white"/>
<path d="M55.5472 23.45C56.8726 23.45 57.9472 22.3755 57.9472 21.05C57.9472 19.7245 56.8726 18.65 55.5472 18.65C54.2217 18.65 53.1472 19.7245 53.1472 21.05C53.1472 22.3755 54.2217 23.45 55.5472 23.45Z" fill="white"/>
<path d="M60.6972 53.25C60.6972 51.15 62.3472 49.5 64.4472 49.5C65.4472 49.5 66.3472 49.85 66.9972 50.5L66.5972 50.9C66.0472 50.4 65.2972 50.05 64.3972 50.05C62.6472 50.05 61.2472 51.4 61.2472 53.25C61.2472 55.05 62.5972 56.45 64.3972 56.45C65.3472 56.45 66.1972 56.05 66.7472 55.45L67.1472 55.85C66.4972 56.55 65.4972 57 64.3972 57C62.3472 57 60.6972 55.4 60.6972 53.25Z" fill="white"/>
<path d="M68.3472 53.25C68.3472 51.15 69.9972 49.5 72.0972 49.5C74.1972 49.5 75.8472 51.15 75.8472 53.25C75.8472 55.35 74.1972 57 72.0972 57C69.9972 57 68.3472 55.4 68.3472 53.25ZM75.2472 53.25C75.2472 51.45 73.8972 50.05 72.0972 50.05C70.3472 50.05 68.9472 51.45 68.9472 53.25C68.9472 55.05 70.2972 56.45 72.0972 56.45C73.8472 56.45 75.2472 55.05 75.2472 53.25Z" fill="white"/>
<path d="M77.6472 49.7H78.1972V51.15C78.6472 50.2 79.6972 49.55 80.8472 49.55C82.4472 49.55 83.4472 50.4 83.4472 52.3V56.9H82.8972V52.4C82.8972 50.9 82.1472 50.15 80.7472 50.15C79.1972 50.15 78.1972 51.5 78.1972 52.7V56.9H77.6472V49.7Z" fill="white"/>
<path d="M85.8472 54.9V50.2H84.7472V49.7H85.8472V48L86.3972 47.95V49.75H89.1472V50.25H86.3972V55C86.3972 56.25 86.8972 56.55 87.6472 56.55C88.4472 56.55 88.9972 56.1 88.9972 56.1L89.2472 56.55C88.9972 56.7 88.3972 57.05 87.6472 57.05C86.6472 57 85.8472 56.6 85.8472 54.9Z" fill="white"/>
<path d="M90.2972 53.25C90.2972 51.15 91.8472 49.5 93.7972 49.5C95.6972 49.5 97.1972 51.15 97.1972 53.2C97.1972 53.3 97.1972 53.4 97.1972 53.45H90.8972C90.9972 55.2 92.2972 56.45 93.9472 56.45C94.8472 56.45 95.7472 56.1 96.3472 55.5L96.6472 55.9C95.9472 56.55 94.9972 56.95 93.9472 56.95C91.8972 57 90.2972 55.45 90.2972 53.25ZM96.6472 53.05C96.5472 51.35 95.3472 50.1 93.7972 50.1C92.1972 50.1 90.9972 51.35 90.8972 53.05H96.6472Z" fill="white"/>
<path d="M98.6472 55.85L98.9472 55.4C99.5472 56.1 100.347 56.45 101.347 56.45C102.747 56.45 103.597 55.75 103.597 54.95C103.597 53.95 102.547 53.7 101.547 53.4C100.247 53.1 98.9972 52.75 98.9972 51.45C98.9972 50.25 100.247 49.55 101.397 49.55C102.297 49.55 102.997 49.8 103.697 50.35L103.447 50.8C102.897 50.3 102.197 50.1 101.397 50.1C100.447 50.1 99.5472 50.7 99.5472 51.45C99.5472 52.4 100.597 52.65 101.647 52.85C102.897 53.15 104.197 53.55 104.197 54.9C104.197 56.2 102.897 56.95 101.397 56.95C99.8972 57 99.0972 56.35 98.6472 55.85Z" fill="white"/>
<path d="M106.297 54.9V50.2H105.197V49.7H106.297V48L106.847 47.95V49.75H109.597V50.25H106.847V55C106.847 56.25 107.347 56.55 108.097 56.55C108.897 56.55 109.447 56.1 109.447 56.1L109.697 56.55C109.447 56.7 108.847 57.05 108.097 57.05C107.147 57 106.297 56.6 106.297 54.9Z" fill="white"/>
</g>
<defs>
<clipPath id="clip0_983_24208">
<rect width="111" height="64" fill="white" transform="translate(0.0471802)"/>
</clipPath>
</defs>
</svg>
