<?xml version="1.0" encoding="utf-8"?>
<!-- Generator: Adobe Illustrator 27.5.0, SVG Export Plug-In . SVG Version: 6.00 Build 0)  -->
<svg version="1.1" id="レイヤー_1" xmlns="http://www.w3.org/2000/svg" xmlns:xlink="http://www.w3.org/1999/xlink" x="0px"
	 y="0px" viewBox="0 0 222 128" style="enable-background:new 0 0 222 128;" xml:space="preserve">
<style type="text/css">
	.st0{enable-background:new    ;}
</style>
<g id="BaseCut_x5F_yoko">
</g>
<g id="BaseCut_x5F_tate">
</g>
<g>
	<path d="M40.3,64.8c0,0.2,0.3,0.3,0.4,0.1l4.4-12c0.8-2.3-1.1-4.6-3.5-4.2l-25,4.4c-2.4,0.4-3.4,3.3-1.9,5.1L31,77.7
		c1.6,1.9,4.5,1.3,5.4-0.9l3.5-9.6c0.1-0.2,0.4-0.2,0.4,0.1v12.5c0,2.2-1.8,3.9-3.9,3.9H4.9c-2.2,0-3.9-1.8-3.9-3.9V48.3
		c0-2.2,1.8-3.9,3.9-3.9h31.4c2.2,0,3.9,1.8,3.9,3.9L40.3,64.8L40.3,64.8z"/>
	<path d="M67.3,42.8L62,43.7c-0.7,0.1-1.2,0.7-1.2,1.4v5.4H57c-0.7,0-1.2,0.5-1.2,1.2v5.5c0,0.7,0.5,1.2,1.2,1.2h3.8V73
		c0,5.9,4.8,10.6,10.6,10.6h4.1c0.7,0,1.2-0.5,1.2-1.2v-5.5c0-0.7-0.5-1.2-1.2-1.2h-3.8c-1.7,0-3-1.3-3-3V58.5h6.8
		c0.7,0,1.2-0.5,1.2-1.2v-5.5c0-0.7-0.5-1.2-1.2-1.2h-6.8V44C68.7,43.2,68,42.6,67.3,42.8z"/>
	<g>
		<path d="M88.8,83.6h-5.5c-0.7,0-1.2-0.5-1.2-1.2V51.7c0-0.7,0.5-1.2,1.2-1.2h5.4c0.7,0,1.2,0.5,1.2,1.2v6.8
			c1.4-2.2,3.9-7.3,10.7-7.9c0.7-0.1,1.3,0.5,1.3,1.2v6.3c0,0.6-0.5,1.2-1.1,1.2c-6.4,0.4-10.7,3.8-10.7,11.7v11.4
			C90.1,83.1,89.5,83.6,88.8,83.6z"/>
	</g>
	<path d="M113.8,83.6h-5.5c-0.7,0-1.2-0.5-1.2-1.2V51.7c0-0.7,0.5-1.2,1.2-1.2h5.5c0.7,0,1.2,0.5,1.2,1.2v30.7
		C115,83.1,114.5,83.6,113.8,83.6z"/>
	<path d="M191.4,67.1c0,9.3-7.6,16.9-16.9,16.9s-16.9-7.6-16.9-16.9s7.6-16.9,16.9-16.9S191.4,57.8,191.4,67.1z M184.1,67.1
		c0-5.3-4.3-9.6-9.6-9.6s-9.6,4.3-9.6,9.6s4.3,9.6,9.6,9.6C179.8,76.8,184.1,72.4,184.1,67.1z"/>
	<path d="M214.4,83.6h5.5c0.8,0,1.3-1,0.9-1.7L210.3,67l10.5-14.9c0.5-0.7,0-1.7-0.9-1.7h-5.5c-0.7,0-1.3,0.3-1.7,0.9l-6.7,9.6
		l-6.7-9.6c-0.4-0.6-1-0.9-1.7-0.9h-5.5c-0.8,0-1.3,1-0.9,1.7L201.7,67l-10.6,15c-0.5,0.7,0,1.7,0.9,1.7h5.5c0.7,0,1.3-0.3,1.7-0.9
		l6.7-9.5l6.7,9.5C213,83.3,213.7,83.6,214.4,83.6z"/>
	<path d="M155.5,66.2c0.5,9.7-7.2,17.8-16.8,17.8c-3.5,0-6.7-1.1-9.4-2.8v1.3c0,0.7-0.5,1.2-1.2,1.2h-5c-0.7,0-1.2-0.5-1.2-1.2V37.2
		c0-0.7,0.5-1.3,1.2-1.4l5.3-0.9c0.7-0.1,1.4,0.4,1.4,1.2v16.8c2.9-1.8,6.3-2.7,9.9-2.5C148.2,50.8,155.1,57.7,155.5,66.2z
		 M148.3,67.1c0-5.3-4.3-9.6-9.6-9.6s-9.6,4.3-9.6,9.6s4.3,9.6,9.6,9.6C144,76.8,148.3,72.4,148.3,67.1z"/>
	<circle cx="111" cy="42.1" r="4.8"/>
</g>
<g class="st0">
	<path d="M121.3,106.5c0-4.2,3.3-7.5,7.5-7.5c2,0,3.8,0.7,5.1,2l-0.8,0.8c-1.1-1-2.6-1.7-4.4-1.7c-3.5,0-6.3,2.7-6.3,6.4
		c0,3.6,2.7,6.4,6.3,6.4c1.9,0,3.6-0.8,4.7-2l0.8,0.8c-1.3,1.4-3.3,2.3-5.5,2.3C124.6,114,121.3,110.8,121.3,106.5z"/>
	<path d="M136.6,106.5c0-4.2,3.3-7.5,7.5-7.5c4.2,0,7.5,3.3,7.5,7.5c0,4.2-3.3,7.5-7.5,7.5C139.9,114,136.6,110.8,136.6,106.5z
		 M150.4,106.5c0-3.6-2.7-6.4-6.3-6.4c-3.5,0-6.3,2.8-6.3,6.4s2.7,6.4,6.3,6.4C147.6,112.9,150.4,110.1,150.4,106.5z"/>
	<path d="M155.2,99.4h1.1v2.9c0.9-1.9,3-3.2,5.3-3.2c3.2,0,5.2,1.7,5.2,5.5v9.2h-1.1v-9c0-3-1.5-4.5-4.3-4.5c-3.1,0-5.1,2.7-5.1,5.1
		v8.4h-1.1V99.4z"/>
	<path d="M171.6,109.8v-9.4h-2.2v-1h2.2V96l1.1-0.1v3.6h5.5v1h-5.5v9.5c0,2.5,1,3.1,2.5,3.1c1.6,0,2.7-0.9,2.7-0.9l0.5,0.9
		c-0.5,0.3-1.7,1-3.2,1C173.2,114,171.6,113.2,171.6,109.8z"/>
	<path d="M180.5,106.5c0-4.2,3.1-7.5,7-7.5c3.8,0,6.8,3.3,6.8,7.4c0,0.2,0,0.4,0,0.5h-12.6c0.2,3.5,2.8,6,6.1,6
		c1.8,0,3.6-0.7,4.8-1.9l0.6,0.8c-1.4,1.3-3.3,2.1-5.4,2.1C183.7,114,180.5,110.9,180.5,106.5z M193.2,106.1
		c-0.2-3.4-2.6-5.9-5.7-5.9c-3.2,0-5.6,2.5-5.8,5.9H193.2z"/>
	<path d="M197.2,111.7l0.6-0.9c1.2,1.4,2.8,2.1,4.8,2.1c2.8,0,4.5-1.4,4.5-3c0-2-2.1-2.5-4.1-3.1c-2.6-0.6-5.1-1.3-5.1-3.9
		c0-2.4,2.5-3.8,4.8-3.8c1.8,0,3.2,0.5,4.6,1.6l-0.5,0.9c-1.1-1-2.5-1.4-4.1-1.4c-1.9,0-3.7,1.2-3.7,2.7c0,1.9,2.1,2.4,4.2,2.8
		c2.5,0.6,5.1,1.4,5.1,4.1c0,2.6-2.6,4.1-5.6,4.1C199.7,114,198.1,112.7,197.2,111.7z"/>
	<path d="M212.5,109.8v-9.4h-2.2v-1h2.2V96l1.1-0.1v3.6h5.5v1h-5.5v9.5c0,2.5,1,3.1,2.5,3.1c1.6,0,2.7-0.9,2.7-0.9l0.5,0.9
		c-0.5,0.3-1.7,1-3.2,1C214.2,114,212.5,113.2,212.5,109.8z"/>
</g>
</svg>
